<?xml version="1.0" encoding="UTF-8" standalone="no"?>
<!-- Created with Inkscape (http://www.inkscape.org/) -->

<svg
   xmlns:dc="http://purl.org/dc/elements/1.1/"
   xmlns:cc="http://creativecommons.org/ns#"
   xmlns:rdf="http://www.w3.org/1999/02/22-rdf-syntax-ns#"
   xmlns:svg="http://www.w3.org/2000/svg"
   xmlns="http://www.w3.org/2000/svg"
   xmlns:sodipodi="http://sodipodi.sourceforge.net/DTD/sodipodi-0.dtd"
   xmlns:inkscape="http://www.inkscape.org/namespaces/inkscape"
   id="svg3336"
   version="1.1"
   inkscape:version="0.91 r13725"
   xml:space="preserve"
   width="765"
   height="990"
   viewBox="0 0 765 990"
   sodipodi:docname="consumodeenergiamundialporfonte.svg"><metadata
     id="metadata3342"><rdf:RDF><cc:Work
         rdf:about=""><dc:format>image/svg+xml</dc:format><dc:type
           rdf:resource="http://purl.org/dc/dcmitype/StillImage" /><dc:title /></cc:Work></rdf:RDF></metadata><defs
     id="defs3340"><clipPath
       clipPathUnits="userSpaceOnUse"
       id="clipPath3350"><path
         d="m 556.724,392.161 -501.447,0 0,-376.084 501.447,0 0,376.084"
         id="path3352"
         inkscape:connector-curvature="0" /></clipPath><clipPath
       clipPathUnits="userSpaceOnUse"
       id="clipPath3364"><path
         d="m 556.724,392.161 -501.447,0 0,-376.084 501.447,0 0,376.084"
         id="path3366"
         inkscape:connector-curvature="0" /></clipPath><clipPath
       clipPathUnits="userSpaceOnUse"
       id="clipPath3400"><path
         d="m 545.274,21.842 -29.083,0 0,11.868 29.083,0 0,-11.868 m 0,17.134 -29.083,0 0,11.951 29.083,0 0,-11.951"
         id="path3402"
         inkscape:connector-curvature="0" /></clipPath><clipPath
       clipPathUnits="userSpaceOnUse"
       id="clipPath3412"><path
         d="m 545.274,33.71 -29.083,0 0,5.266 29.083,0 0,-5.266"
         id="path3414"
         inkscape:connector-curvature="0" /></clipPath><clipPath
       clipPathUnits="userSpaceOnUse"
       id="clipPath3424"><path
         d="m 495.213,21.842 -29.084,0 0,11.868 0.418,0 0,-11.784 28.666,0 0,-0.084 m -28.666,17.134 -0.418,0 0,11.951 0.418,0 0,-11.951"
         id="path3426"
         inkscape:connector-curvature="0" /></clipPath><clipPath
       clipPathUnits="userSpaceOnUse"
       id="clipPath3436"><path
         d="m 466.547,33.71 -0.418,0 0,5.266 0.418,0 0,-5.266"
         id="path3438"
         inkscape:connector-curvature="0" /></clipPath><clipPath
       clipPathUnits="userSpaceOnUse"
       id="clipPath3448"><path
         d="m 445.152,21.842 -29.083,0 0,11.868 0.417,0 0,-11.784 28.666,0 0,-0.084 m -28.666,17.134 -0.417,0 0,11.951 0.417,0 0,-11.951"
         id="path3450"
         inkscape:connector-curvature="0" /></clipPath><clipPath
       clipPathUnits="userSpaceOnUse"
       id="clipPath3460"><path
         d="m 416.486,33.71 -0.417,0 0,5.266 0.417,0 0,-5.266"
         id="path3462"
         inkscape:connector-curvature="0" /></clipPath><clipPath
       clipPathUnits="userSpaceOnUse"
       id="clipPath3472"><path
         d="m 366.843,21.842 -0.752,0 0,11.868 0.752,0 0,-11.868 m 0,17.134 -0.752,0 0,11.951 29.084,0 0,-0.334 -28.332,0 0,-11.617"
         id="path3474"
         inkscape:connector-curvature="0" /></clipPath><clipPath
       clipPathUnits="userSpaceOnUse"
       id="clipPath3484"><path
         d="m 366.843,33.71 -0.752,0 0,5.266 0.752,0 0,-5.266"
         id="path3486"
         inkscape:connector-curvature="0" /></clipPath><clipPath
       clipPathUnits="userSpaceOnUse"
       id="clipPath3496"><path
         d="m 316.364,21.842 -0.334,0 0,11.868 0.334,0 0,-11.868 m 0,17.134 -0.334,0 0,11.951 29.084,0 0,-0.334 -28.75,0 0,-11.617"
         id="path3498"
         inkscape:connector-curvature="0" /></clipPath><clipPath
       clipPathUnits="userSpaceOnUse"
       id="clipPath3508"><path
         d="m 316.364,33.71 -0.334,0 0,5.266 0.334,0 0,-5.266"
         id="path3510"
         inkscape:connector-curvature="0" /></clipPath><clipPath
       clipPathUnits="userSpaceOnUse"
       id="clipPath3520"><path
         d="m 295.053,21.842 -29.085,0 0,11.868 0.251,0 0,-11.365 28.834,0 0,-0.503 m -28.834,17.134 -0.251,0 0,11.951 0.251,0 0,-11.951"
         id="path3522"
         inkscape:connector-curvature="0" /></clipPath><clipPath
       clipPathUnits="userSpaceOnUse"
       id="clipPath3532"><path
         d="m 266.219,33.71 -0.251,0 0,5.266 0.251,0 0,-5.266"
         id="path3534"
         inkscape:connector-curvature="0" /></clipPath><clipPath
       clipPathUnits="userSpaceOnUse"
       id="clipPath3544"><path
         d="m 245.074,21.842 -29.084,0 0,11.868 0.168,0 0,-11.784 28.916,0 0,-0.084 m -28.916,17.134 -0.168,0 0,11.951 0.168,0 0,-11.951"
         id="path3546"
         inkscape:connector-curvature="0" /></clipPath><clipPath
       clipPathUnits="userSpaceOnUse"
       id="clipPath3556"><path
         d="m 216.158,33.71 -0.168,0 0,5.266 0.168,0 0,-5.266"
         id="path3558"
         inkscape:connector-curvature="0" /></clipPath><clipPath
       clipPathUnits="userSpaceOnUse"
       id="clipPath3568"><path
         d="m 194.512,21.842 -0.335,0 0,11.868 0.335,0 0,-11.868 m 0,17.134 -0.335,0 0,11.617 -28.749,0 0,0.334 29.084,0 0,-11.951"
         id="path3570"
         inkscape:connector-curvature="0" /></clipPath><clipPath
       clipPathUnits="userSpaceOnUse"
       id="clipPath3580"><path
         d="m 194.512,33.71 -0.335,0 0,5.266 0.335,0 0,-5.266"
         id="path3582"
         inkscape:connector-curvature="0" /></clipPath><clipPath
       clipPathUnits="userSpaceOnUse"
       id="clipPath3592"><path
         d="m 144.952,21.842 -29.084,0 0,11.868 0.167,0 0,-11.784 28.917,0 0,-0.084 m -28.917,17.134 -0.167,0 0,11.951 0.167,0 0,-11.951"
         id="path3594"
         inkscape:connector-curvature="0" /></clipPath><clipPath
       clipPathUnits="userSpaceOnUse"
       id="clipPath3604"><path
         d="m 116.035,33.71 -0.167,0 0,5.266 0.167,0 0,-5.266"
         id="path3606"
         inkscape:connector-curvature="0" /></clipPath><clipPath
       clipPathUnits="userSpaceOnUse"
       id="clipPath3616"><path
         d="m 94.891,21.842 -29.084,0 0,11.868 0,-11.784 29.084,0 0,-0.084"
         id="path3618"
         inkscape:connector-curvature="0" /></clipPath><clipPath
       clipPathUnits="userSpaceOnUse"
       id="clipPath3650"><path
         d="m 495.631,21.926 -0.418,0 0,11.784 0.418,0 0,-11.784 m 0,17.05 -0.418,0 0,11.951 -28.666,0 0,0.084 29.084,0 0,-12.035"
         id="path3652"
         inkscape:connector-curvature="0" /></clipPath><clipPath
       clipPathUnits="userSpaceOnUse"
       id="clipPath3662"><path
         d="m 495.631,33.71 -0.418,0 0,5.266 0.418,0 0,-5.266"
         id="path3664"
         inkscape:connector-curvature="0" /></clipPath><clipPath
       clipPathUnits="userSpaceOnUse"
       id="clipPath3674"><path
         d="m 495.213,21.926 -28.666,0 0,11.784 28.666,0 0,-11.784 m 0,17.05 -28.666,0 0,11.951 28.666,0 0,-11.951"
         id="path3676"
         inkscape:connector-curvature="0" /></clipPath><clipPath
       clipPathUnits="userSpaceOnUse"
       id="clipPath3686"><path
         d="m 495.213,33.71 -28.666,0 0,5.266 28.666,0 0,-5.266"
         id="path3688"
         inkscape:connector-curvature="0" /></clipPath><clipPath
       clipPathUnits="userSpaceOnUse"
       id="clipPath3698"><path
         d="m 445.57,21.926 -0.418,0 0,11.784 0.418,0 0,-11.784 m 0,17.05 -0.418,0 0,11.951 -28.666,0 0,0.084 29.084,0 0,-12.035"
         id="path3700"
         inkscape:connector-curvature="0" /></clipPath><clipPath
       clipPathUnits="userSpaceOnUse"
       id="clipPath3710"><path
         d="m 445.57,33.71 -0.418,0 0,5.266 0.418,0 0,-5.266"
         id="path3712"
         inkscape:connector-curvature="0" /></clipPath><clipPath
       clipPathUnits="userSpaceOnUse"
       id="clipPath3722"><path
         d="m 445.152,21.926 -28.666,0 0,11.784 28.666,0 0,-11.784 m 0,17.05 -28.666,0 0,11.951 28.666,0 0,-11.951"
         id="path3724"
         inkscape:connector-curvature="0" /></clipPath><clipPath
       clipPathUnits="userSpaceOnUse"
       id="clipPath3734"><path
         d="m 445.152,33.71 -28.666,0 0,5.266 28.666,0 0,-5.266"
         id="path3736"
         inkscape:connector-curvature="0" /></clipPath><clipPath
       clipPathUnits="userSpaceOnUse"
       id="clipPath3746"><path
         d="m 395.927,21.509 -29.084,0 0,0.333 28.332,0 0,11.868 0.752,0 0,-12.201 m 0,17.467 -0.752,0 0,11.617 0.752,0 0,-11.617"
         id="path3748"
         inkscape:connector-curvature="0" /></clipPath><clipPath
       clipPathUnits="userSpaceOnUse"
       id="clipPath3758"><path
         d="m 395.927,33.71 -0.752,0 0,5.266 0.752,0 0,-5.266"
         id="path3760"
         inkscape:connector-curvature="0" /></clipPath><clipPath
       clipPathUnits="userSpaceOnUse"
       id="clipPath3770"><path
         d="m 395.175,21.842 -28.332,0 0,11.868 28.332,0 0,-11.868 m 0,17.134 -28.332,0 0,11.617 28.332,0 0,-11.617"
         id="path3772"
         inkscape:connector-curvature="0" /></clipPath><clipPath
       clipPathUnits="userSpaceOnUse"
       id="clipPath3782"><path
         d="m 395.175,33.71 -28.332,0 0,5.266 28.332,0 0,-5.266"
         id="path3784"
         inkscape:connector-curvature="0" /></clipPath><clipPath
       clipPathUnits="userSpaceOnUse"
       id="clipPath3794"><path
         d="m 345.448,21.509 -29.084,0 0,0.333 28.75,0 0,11.868 0.334,0 0,-12.201 m 0,17.467 -0.334,0 0,11.617 0.334,0 0,-11.617"
         id="path3796"
         inkscape:connector-curvature="0" /></clipPath><clipPath
       clipPathUnits="userSpaceOnUse"
       id="clipPath3806"><path
         d="m 345.448,33.71 -0.334,0 0,5.266 0.334,0 0,-5.266"
         id="path3808"
         inkscape:connector-curvature="0" /></clipPath><clipPath
       clipPathUnits="userSpaceOnUse"
       id="clipPath3818"><path
         d="m 345.114,21.842 -28.75,0 0,11.868 28.75,0 0,-11.868 m 0,17.134 -28.75,0 0,11.617 28.75,0 0,-11.617"
         id="path3820"
         inkscape:connector-curvature="0" /></clipPath><clipPath
       clipPathUnits="userSpaceOnUse"
       id="clipPath3830"><path
         d="m 345.114,33.71 -28.75,0 0,5.266 28.75,0 0,-5.266"
         id="path3832"
         inkscape:connector-curvature="0" /></clipPath><clipPath
       clipPathUnits="userSpaceOnUse"
       id="clipPath3842"><path
         d="m 295.303,22.345 -0.25,0 0,11.365 0.25,0 0,-11.365 m 0,16.631 -0.25,0 0,11.951 -28.834,0 0,0.502 29.084,0 0,-12.453"
         id="path3844"
         inkscape:connector-curvature="0" /></clipPath><clipPath
       clipPathUnits="userSpaceOnUse"
       id="clipPath3854"><path
         d="m 295.303,33.71 -0.25,0 0,5.266 0.25,0 0,-5.266"
         id="path3856"
         inkscape:connector-curvature="0" /></clipPath><clipPath
       clipPathUnits="userSpaceOnUse"
       id="clipPath3866"><path
         d="m 295.053,22.345 -28.834,0 0,11.365 28.834,0 0,-11.365 m 0,16.631 -28.834,0 0,11.951 28.834,0 0,-11.951"
         id="path3868"
         inkscape:connector-curvature="0" /></clipPath><clipPath
       clipPathUnits="userSpaceOnUse"
       id="clipPath3878"><path
         d="m 295.053,33.71 -28.834,0 0,5.266 28.834,0 0,-5.266"
         id="path3880"
         inkscape:connector-curvature="0" /></clipPath><clipPath
       clipPathUnits="userSpaceOnUse"
       id="clipPath3890"><path
         d="m 245.241,21.926 -0.167,0 0,11.784 0.167,0 0,-11.784 m 0,17.05 -0.167,0 0,11.951 -28.916,0 0,0.084 29.083,0 0,-12.035"
         id="path3892"
         inkscape:connector-curvature="0" /></clipPath><clipPath
       clipPathUnits="userSpaceOnUse"
       id="clipPath3902"><path
         d="m 245.241,33.71 -0.167,0 0,5.266 0.167,0 0,-5.266"
         id="path3904"
         inkscape:connector-curvature="0" /></clipPath><clipPath
       clipPathUnits="userSpaceOnUse"
       id="clipPath3914"><path
         d="m 245.074,21.926 -28.916,0 0,11.784 28.916,0 0,-11.784 m 0,17.05 -28.916,0 0,11.951 28.916,0 0,-11.951"
         id="path3916"
         inkscape:connector-curvature="0" /></clipPath><clipPath
       clipPathUnits="userSpaceOnUse"
       id="clipPath3926"><path
         d="m 245.074,33.71 -28.916,0 0,5.266 28.916,0 0,-5.266"
         id="path3928"
         inkscape:connector-curvature="0" /></clipPath><clipPath
       clipPathUnits="userSpaceOnUse"
       id="clipPath3938"><path
         d="m 194.177,21.509 -29.084,0 0,12.201 0.335,0 0,-11.868 28.749,0 0,-0.333 m -28.749,17.467 -0.335,0 0,11.617 0.335,0 0,-11.617"
         id="path3940"
         inkscape:connector-curvature="0" /></clipPath><clipPath
       clipPathUnits="userSpaceOnUse"
       id="clipPath3950"><path
         d="m 165.428,33.71 -0.335,0 0,5.266 0.335,0 0,-5.266"
         id="path3952"
         inkscape:connector-curvature="0" /></clipPath><clipPath
       clipPathUnits="userSpaceOnUse"
       id="clipPath3962"><path
         d="m 194.177,21.842 -28.749,0 0,11.868 28.749,0 0,-11.868 m 0,17.134 -28.749,0 0,11.617 28.749,0 0,-11.617"
         id="path3964"
         inkscape:connector-curvature="0" /></clipPath><clipPath
       clipPathUnits="userSpaceOnUse"
       id="clipPath3974"><path
         d="m 194.177,33.71 -28.749,0 0,5.266 28.749,0 0,-5.266"
         id="path3976"
         inkscape:connector-curvature="0" /></clipPath><clipPath
       clipPathUnits="userSpaceOnUse"
       id="clipPath3986"><path
         d="m 145.119,21.926 -0.167,0 0,11.784 0.167,0 0,-11.784 m 0,17.05 -0.167,0 0,11.951 -28.917,0 0,0.084 29.084,0 0,-12.035"
         id="path3988"
         inkscape:connector-curvature="0" /></clipPath><clipPath
       clipPathUnits="userSpaceOnUse"
       id="clipPath3998"><path
         d="m 145.119,33.71 -0.167,0 0,5.266 0.167,0 0,-5.266"
         id="path4000"
         inkscape:connector-curvature="0" /></clipPath><clipPath
       clipPathUnits="userSpaceOnUse"
       id="clipPath4010"><path
         d="m 144.952,21.926 -28.917,0 0,11.784 28.917,0 0,-11.784 m 0,17.05 -28.917,0 0,11.951 28.917,0 0,-11.951"
         id="path4012"
         inkscape:connector-curvature="0" /></clipPath><clipPath
       clipPathUnits="userSpaceOnUse"
       id="clipPath4022"><path
         d="m 144.952,33.71 -28.917,0 0,5.266 28.917,0 0,-5.266"
         id="path4024"
         inkscape:connector-curvature="0" /></clipPath><clipPath
       clipPathUnits="userSpaceOnUse"
       id="clipPath4034"><path
         d="m 94.891,38.976 0,11.951 -29.084,0 0,0.084 29.084,0 0,-12.035"
         id="path4036"
         inkscape:connector-curvature="0" /></clipPath><clipPath
       clipPathUnits="userSpaceOnUse"
       id="clipPath4046"><path
         d="m 94.891,21.926 -29.084,0 0,11.784 29.084,0 0,-11.784 m 0,17.05 -29.084,0 0,11.951 29.084,0 0,-11.951"
         id="path4048"
         inkscape:connector-curvature="0" /></clipPath><clipPath
       clipPathUnits="userSpaceOnUse"
       id="clipPath4058"><path
         d="m 94.891,33.71 -29.084,0 0,5.266 29.084,0 0,-5.266"
         id="path4060"
         inkscape:connector-curvature="0" /></clipPath><clipPath
       clipPathUnits="userSpaceOnUse"
       id="clipPath4192"><path
         d="m 556.724,775.922 -501.447,0 0,-376.085 501.447,0 0,376.085"
         id="path4194"
         inkscape:connector-curvature="0" /></clipPath><clipPath
       clipPathUnits="userSpaceOnUse"
       id="clipPath4206"><path
         d="m 556.724,775.922 -501.447,0 0,-376.085 501.447,0 0,376.085"
         id="path4208"
         inkscape:connector-curvature="0" /></clipPath><clipPath
       clipPathUnits="userSpaceOnUse"
       id="clipPath4242"><path
         d="m 545.274,405.603 -29.083,0 0,11.868 29.083,0 0,-11.868 m 0,17.133 -29.083,0 0,11.951 29.083,0 0,-11.951"
         id="path4244"
         inkscape:connector-curvature="0" /></clipPath><clipPath
       clipPathUnits="userSpaceOnUse"
       id="clipPath4254"><path
         d="m 545.274,417.471 -29.083,0 0,5.265 29.083,0 0,-5.265"
         id="path4256"
         inkscape:connector-curvature="0" /></clipPath><clipPath
       clipPathUnits="userSpaceOnUse"
       id="clipPath4266"><path
         d="m 495.213,405.603 -29.084,0 0,11.868 0.418,0 0,-11.784 28.666,0 0,-0.084 m -28.666,17.133 -0.418,0 0,11.951 0.418,0 0,-11.951"
         id="path4268"
         inkscape:connector-curvature="0" /></clipPath><clipPath
       clipPathUnits="userSpaceOnUse"
       id="clipPath4278"><path
         d="m 466.547,417.471 -0.418,0 0,5.265 0.418,0 0,-5.265"
         id="path4280"
         inkscape:connector-curvature="0" /></clipPath><clipPath
       clipPathUnits="userSpaceOnUse"
       id="clipPath4290"><path
         d="m 445.152,405.603 -29.083,0 0,11.868 0.417,0 0,-11.784 28.666,0 0,-0.084 m -28.666,17.133 -0.417,0 0,11.951 0.417,0 0,-11.951"
         id="path4292"
         inkscape:connector-curvature="0" /></clipPath><clipPath
       clipPathUnits="userSpaceOnUse"
       id="clipPath4302"><path
         d="m 416.486,417.471 -0.417,0 0,5.265 0.417,0 0,-5.265"
         id="path4304"
         inkscape:connector-curvature="0" /></clipPath><clipPath
       clipPathUnits="userSpaceOnUse"
       id="clipPath4314"><path
         d="m 366.843,405.603 -0.752,0 0,11.868 0.752,0 0,-11.868 m 0,17.133 -0.752,0 0,11.951 29.084,0 0,-0.334 -28.332,0 0,-11.617"
         id="path4316"
         inkscape:connector-curvature="0" /></clipPath><clipPath
       clipPathUnits="userSpaceOnUse"
       id="clipPath4326"><path
         d="m 366.843,417.471 -0.752,0 0,5.265 0.752,0 0,-5.265"
         id="path4328"
         inkscape:connector-curvature="0" /></clipPath><clipPath
       clipPathUnits="userSpaceOnUse"
       id="clipPath4338"><path
         d="m 316.364,405.603 -0.334,0 0,11.868 0.334,0 0,-11.868 m 0,17.133 -0.334,0 0,11.951 29.084,0 0,-0.334 -28.75,0 0,-11.617"
         id="path4340"
         inkscape:connector-curvature="0" /></clipPath><clipPath
       clipPathUnits="userSpaceOnUse"
       id="clipPath4350"><path
         d="m 316.364,417.471 -0.334,0 0,5.265 0.334,0 0,-5.265"
         id="path4352"
         inkscape:connector-curvature="0" /></clipPath><clipPath
       clipPathUnits="userSpaceOnUse"
       id="clipPath4362"><path
         d="m 295.053,405.603 -29.085,0 0,11.868 0.251,0 0,-11.366 28.834,0 0,-0.502 m -28.834,17.133 -0.251,0 0,11.951 0.251,0 0,-11.951"
         id="path4364"
         inkscape:connector-curvature="0" /></clipPath><clipPath
       clipPathUnits="userSpaceOnUse"
       id="clipPath4374"><path
         d="m 266.219,417.471 -0.251,0 0,5.265 0.251,0 0,-5.265"
         id="path4376"
         inkscape:connector-curvature="0" /></clipPath><clipPath
       clipPathUnits="userSpaceOnUse"
       id="clipPath4386"><path
         d="m 245.074,405.603 -29.084,0 0,11.868 0.168,0 0,-11.784 28.916,0 0,-0.084 m -28.916,17.133 -0.168,0 0,11.951 0.168,0 0,-11.951"
         id="path4388"
         inkscape:connector-curvature="0" /></clipPath><clipPath
       clipPathUnits="userSpaceOnUse"
       id="clipPath4398"><path
         d="m 216.158,417.471 -0.168,0 0,5.265 0.168,0 0,-5.265"
         id="path4400"
         inkscape:connector-curvature="0" /></clipPath><clipPath
       clipPathUnits="userSpaceOnUse"
       id="clipPath4410"><path
         d="m 194.512,405.603 -0.335,0 0,11.868 0.335,0 0,-11.868 m 0,17.133 -0.335,0 0,11.617 -28.749,0 0,0.334 29.084,0 0,-11.951"
         id="path4412"
         inkscape:connector-curvature="0" /></clipPath><clipPath
       clipPathUnits="userSpaceOnUse"
       id="clipPath4422"><path
         d="m 194.512,417.471 -0.335,0 0,5.265 0.335,0 0,-5.265"
         id="path4424"
         inkscape:connector-curvature="0" /></clipPath><clipPath
       clipPathUnits="userSpaceOnUse"
       id="clipPath4434"><path
         d="m 144.952,405.603 -29.084,0 0,11.868 0.167,0 0,-11.784 28.917,0 0,-0.084 m -28.917,17.133 -0.167,0 0,11.951 0.167,0 0,-11.951"
         id="path4436"
         inkscape:connector-curvature="0" /></clipPath><clipPath
       clipPathUnits="userSpaceOnUse"
       id="clipPath4446"><path
         d="m 116.035,417.471 -0.167,0 0,5.265 0.167,0 0,-5.265"
         id="path4448"
         inkscape:connector-curvature="0" /></clipPath><clipPath
       clipPathUnits="userSpaceOnUse"
       id="clipPath4458"><path
         d="m 94.891,405.603 -29.084,0 0,11.868 0,-11.784 29.084,0 0,-0.084"
         id="path4460"
         inkscape:connector-curvature="0" /></clipPath><clipPath
       clipPathUnits="userSpaceOnUse"
       id="clipPath4504"><path
         d="m 495.631,405.687 -0.418,0 0,11.784 0.418,0 0,-11.784 m 0,17.049 -0.418,0 0,11.951 -28.666,0 0,0.084 29.084,0 0,-12.035"
         id="path4506"
         inkscape:connector-curvature="0" /></clipPath><clipPath
       clipPathUnits="userSpaceOnUse"
       id="clipPath4516"><path
         d="m 495.631,417.471 -0.418,0 0,5.265 0.418,0 0,-5.265"
         id="path4518"
         inkscape:connector-curvature="0" /></clipPath><clipPath
       clipPathUnits="userSpaceOnUse"
       id="clipPath4528"><path
         d="m 495.213,405.687 -28.666,0 0,11.784 28.666,0 0,-11.784 m 0,17.049 -28.666,0 0,11.951 28.666,0 0,-11.951"
         id="path4530"
         inkscape:connector-curvature="0" /></clipPath><clipPath
       clipPathUnits="userSpaceOnUse"
       id="clipPath4540"><path
         d="m 495.213,417.471 -28.666,0 0,5.265 28.666,0 0,-5.265"
         id="path4542"
         inkscape:connector-curvature="0" /></clipPath><clipPath
       clipPathUnits="userSpaceOnUse"
       id="clipPath4552"><path
         d="m 445.57,405.687 -0.418,0 0,11.784 0.418,0 0,-11.784 m 0,17.049 -0.418,0 0,11.951 -28.666,0 0,0.084 29.084,0 0,-12.035"
         id="path4554"
         inkscape:connector-curvature="0" /></clipPath><clipPath
       clipPathUnits="userSpaceOnUse"
       id="clipPath4564"><path
         d="m 445.57,417.471 -0.418,0 0,5.265 0.418,0 0,-5.265"
         id="path4566"
         inkscape:connector-curvature="0" /></clipPath><clipPath
       clipPathUnits="userSpaceOnUse"
       id="clipPath4576"><path
         d="m 445.152,405.687 -28.666,0 0,11.784 28.666,0 0,-11.784 m 0,17.049 -28.666,0 0,11.951 28.666,0 0,-11.951"
         id="path4578"
         inkscape:connector-curvature="0" /></clipPath><clipPath
       clipPathUnits="userSpaceOnUse"
       id="clipPath4588"><path
         d="m 445.152,417.471 -28.666,0 0,5.265 28.666,0 0,-5.265"
         id="path4590"
         inkscape:connector-curvature="0" /></clipPath><clipPath
       clipPathUnits="userSpaceOnUse"
       id="clipPath4600"><path
         d="m 395.927,405.269 -29.084,0 0,0.334 28.332,0 0,11.868 0.752,0 0,-12.202 m 0,17.467 -0.752,0 0,11.617 0.752,0 0,-11.617"
         id="path4602"
         inkscape:connector-curvature="0" /></clipPath><clipPath
       clipPathUnits="userSpaceOnUse"
       id="clipPath4612"><path
         d="m 395.927,417.471 -0.752,0 0,5.265 0.752,0 0,-5.265"
         id="path4614"
         inkscape:connector-curvature="0" /></clipPath><clipPath
       clipPathUnits="userSpaceOnUse"
       id="clipPath4624"><path
         d="m 395.175,405.603 -28.332,0 0,11.868 28.332,0 0,-11.868 m 0,17.133 -28.332,0 0,11.617 28.332,0 0,-11.617"
         id="path4626"
         inkscape:connector-curvature="0" /></clipPath><clipPath
       clipPathUnits="userSpaceOnUse"
       id="clipPath4636"><path
         d="m 395.175,417.471 -28.332,0 0,5.265 28.332,0 0,-5.265"
         id="path4638"
         inkscape:connector-curvature="0" /></clipPath><clipPath
       clipPathUnits="userSpaceOnUse"
       id="clipPath4648"><path
         d="m 345.448,405.269 -29.084,0 0,0.334 28.75,0 0,11.868 0.334,0 0,-12.202 m 0,17.467 -0.334,0 0,11.617 0.334,0 0,-11.617"
         id="path4650"
         inkscape:connector-curvature="0" /></clipPath><clipPath
       clipPathUnits="userSpaceOnUse"
       id="clipPath4660"><path
         d="m 345.448,417.471 -0.334,0 0,5.265 0.334,0 0,-5.265"
         id="path4662"
         inkscape:connector-curvature="0" /></clipPath><clipPath
       clipPathUnits="userSpaceOnUse"
       id="clipPath4672"><path
         d="m 345.114,405.603 -28.75,0 0,11.868 28.75,0 0,-11.868 m 0,17.133 -28.75,0 0,11.617 28.75,0 0,-11.617"
         id="path4674"
         inkscape:connector-curvature="0" /></clipPath><clipPath
       clipPathUnits="userSpaceOnUse"
       id="clipPath4684"><path
         d="m 345.114,417.471 -28.75,0 0,5.265 28.75,0 0,-5.265"
         id="path4686"
         inkscape:connector-curvature="0" /></clipPath><clipPath
       clipPathUnits="userSpaceOnUse"
       id="clipPath4696"><path
         d="m 295.303,406.105 -0.25,0 0,11.366 0.25,0 0,-11.366 m 0,16.631 -0.25,0 0,11.951 -28.834,0 0,0.502 29.084,0 0,-12.453"
         id="path4698"
         inkscape:connector-curvature="0" /></clipPath><clipPath
       clipPathUnits="userSpaceOnUse"
       id="clipPath4708"><path
         d="m 295.303,417.471 -0.25,0 0,5.265 0.25,0 0,-5.265"
         id="path4710"
         inkscape:connector-curvature="0" /></clipPath><clipPath
       clipPathUnits="userSpaceOnUse"
       id="clipPath4720"><path
         d="m 295.053,406.105 -28.834,0 0,11.366 28.834,0 0,-11.366 m 0,16.631 -28.834,0 0,11.951 28.834,0 0,-11.951"
         id="path4722"
         inkscape:connector-curvature="0" /></clipPath><clipPath
       clipPathUnits="userSpaceOnUse"
       id="clipPath4732"><path
         d="m 295.053,417.471 -28.834,0 0,5.265 28.834,0 0,-5.265"
         id="path4734"
         inkscape:connector-curvature="0" /></clipPath><clipPath
       clipPathUnits="userSpaceOnUse"
       id="clipPath4744"><path
         d="m 245.241,405.687 -0.167,0 0,11.784 0.167,0 0,-11.784 m 0,17.049 -0.167,0 0,11.951 -28.916,0 0,0.084 29.083,0 0,-12.035"
         id="path4746"
         inkscape:connector-curvature="0" /></clipPath><clipPath
       clipPathUnits="userSpaceOnUse"
       id="clipPath4756"><path
         d="m 245.241,417.471 -0.167,0 0,5.265 0.167,0 0,-5.265"
         id="path4758"
         inkscape:connector-curvature="0" /></clipPath><clipPath
       clipPathUnits="userSpaceOnUse"
       id="clipPath4768"><path
         d="m 245.074,405.687 -28.916,0 0,11.784 28.916,0 0,-11.784 m 0,17.049 -28.916,0 0,11.951 28.916,0 0,-11.951"
         id="path4770"
         inkscape:connector-curvature="0" /></clipPath><clipPath
       clipPathUnits="userSpaceOnUse"
       id="clipPath4780"><path
         d="m 245.074,417.471 -28.916,0 0,5.265 28.916,0 0,-5.265"
         id="path4782"
         inkscape:connector-curvature="0" /></clipPath><clipPath
       clipPathUnits="userSpaceOnUse"
       id="clipPath4792"><path
         d="m 194.177,405.269 -29.084,0 0,12.202 0.335,0 0,-11.868 28.749,0 0,-0.334 m -28.749,17.467 -0.335,0 0,11.617 0.335,0 0,-11.617"
         id="path4794"
         inkscape:connector-curvature="0" /></clipPath><clipPath
       clipPathUnits="userSpaceOnUse"
       id="clipPath4804"><path
         d="m 165.428,417.471 -0.335,0 0,5.265 0.335,0 0,-5.265"
         id="path4806"
         inkscape:connector-curvature="0" /></clipPath><clipPath
       clipPathUnits="userSpaceOnUse"
       id="clipPath4816"><path
         d="m 194.177,405.603 -28.749,0 0,11.868 28.749,0 0,-11.868 m 0,17.133 -28.749,0 0,11.617 28.749,0 0,-11.617"
         id="path4818"
         inkscape:connector-curvature="0" /></clipPath><clipPath
       clipPathUnits="userSpaceOnUse"
       id="clipPath4828"><path
         d="m 194.177,417.471 -28.749,0 0,5.265 28.749,0 0,-5.265"
         id="path4830"
         inkscape:connector-curvature="0" /></clipPath><clipPath
       clipPathUnits="userSpaceOnUse"
       id="clipPath4840"><path
         d="m 145.119,405.687 -0.167,0 0,11.784 0.167,0 0,-11.784 m 0,17.049 -0.167,0 0,11.951 -28.917,0 0,0.084 29.084,0 0,-12.035"
         id="path4842"
         inkscape:connector-curvature="0" /></clipPath><clipPath
       clipPathUnits="userSpaceOnUse"
       id="clipPath4852"><path
         d="m 145.119,417.471 -0.167,0 0,5.265 0.167,0 0,-5.265"
         id="path4854"
         inkscape:connector-curvature="0" /></clipPath><clipPath
       clipPathUnits="userSpaceOnUse"
       id="clipPath4864"><path
         d="m 144.952,405.687 -28.917,0 0,11.784 28.917,0 0,-11.784 m 0,17.049 -28.917,0 0,11.951 28.917,0 0,-11.951"
         id="path4866"
         inkscape:connector-curvature="0" /></clipPath><clipPath
       clipPathUnits="userSpaceOnUse"
       id="clipPath4876"><path
         d="m 144.952,417.471 -28.917,0 0,5.265 28.917,0 0,-5.265"
         id="path4878"
         inkscape:connector-curvature="0" /></clipPath><clipPath
       clipPathUnits="userSpaceOnUse"
       id="clipPath4888"><path
         d="m 94.891,422.736 0,11.951 -29.084,0 0,0.084 29.084,0 0,-12.035"
         id="path4890"
         inkscape:connector-curvature="0" /></clipPath><clipPath
       clipPathUnits="userSpaceOnUse"
       id="clipPath4900"><path
         d="m 94.891,405.687 -29.084,0 0,11.784 29.084,0 0,-11.784 m 0,17.049 -29.084,0 0,11.951 29.084,0 0,-11.951"
         id="path4902"
         inkscape:connector-curvature="0" /></clipPath><clipPath
       clipPathUnits="userSpaceOnUse"
       id="clipPath4912"><path
         d="m 94.891,417.471 -29.084,0 0,5.265 29.084,0 0,-5.265"
         id="path4914"
         inkscape:connector-curvature="0" /></clipPath></defs><sodipodi:namedview
     pagecolor="#ffffff"
     bordercolor="#666666"
     borderopacity="1"
     objecttolerance="10"
     gridtolerance="10"
     guidetolerance="10"
     inkscape:pageopacity="0"
     inkscape:pageshadow="2"
     inkscape:window-width="1536"
     inkscape:window-height="801"
     id="namedview3338"
     showgrid="false"
     inkscape:zoom="1.2767677"
     inkscape:cx="562.32195"
     inkscape:cy="649.63039"
     inkscape:window-x="-8"
     inkscape:window-y="-8"
     inkscape:window-maximized="1"
     inkscape:current-layer="g3344" /><g
     id="g3344"
     inkscape:groupmode="layer"
     inkscape:label="EIA-International Energy Outlook 2017-0484(2017)"
     transform="matrix(-1.25,0,0,1.25,765,0)"><text
       transform="matrix(0,-1,-1,0,0,0)"
       style="font-variant:normal;font-weight:bold;font-stretch:normal;font-size:9.77820015px;font-family:Arial;-inkscape-font-specification:Arial-BoldMT;writing-mode:lr-tb;fill:#231f20;fill-opacity:1;fill-rule:nonzero;stroke:none"
       id="text3628"
       x="-329.69446"
       y="-561.19983"><tspan
         x="-329.69446 -320.66623 -314.72891 -310.88608 -308.12668 -302.17664 -299.58444 -294.17221 -288.22217 -282.80994 -278.9671 -273.01706 -267.92163 -264.996 -259.58377 -253.63371 -247.68369 -242.27145 -236.32141 -227.65305 -221.703 -218.47131 -215.71092 -209.76089 -203.81085 -201.38586 -195.43584 -190.34041 -187.3297 -181.91747 -175.96744 -170.55521 -166.71335 -160.76331 -155.66594 -152.7403 -147.32806 -141.37804 -135.42799 -131.58516 -126.17294"
         y="-561.19983"
         sodipodi:role="line"
         id="tspan3630">World energy consumption by energy source</tspan></text>
<text
       transform="matrix(0,-1,-1,0,0,0)"
       style="font-variant:normal;font-weight:normal;font-stretch:normal;font-size:9.77820015px;font-family:Arial;-inkscape-font-specification:ArialMT;writing-mode:lr-tb;fill:#231f20;fill-opacity:1;fill-rule:nonzero;stroke:none"
       id="text3632"
       x="-261.25305"
       y="-547.70007"><tspan
         x="-261.25305 -255.81735 -250.38165 -244.94595 -239.51025 -236.2551 -234.08531 -231.91553 -229.74574 -227.57596 -222.14026 -216.70456 -214.2737 -207.75262 -205.03526"
         y="-547.70007"
         sodipodi:role="line"
         id="tspan3634">quadrillion Btu</tspan></text>
<path
       d="m 67.813,141.438 476.208,0 0,187.374 -476.208,0 0,-187.374 z"
       style="fill:#ffffff;fill-opacity:1;fill-rule:nonzero;stroke:none"
       id="path4066"
       inkscape:connector-curvature="0" /><g
       id="g4068"
       transform="translate(513.934,278.25)"><path
         d="M 0,0 -426.732,0"
         style="fill:none;stroke:#d9dbdc;stroke-width:0.50099999;stroke-linecap:butt;stroke-linejoin:round;stroke-miterlimit:10;stroke-dasharray:none;stroke-opacity:1"
         id="path4070"
         inkscape:connector-curvature="0" /><g
         id="g4072"
         transform="translate(0,-30.422)"><path
           d="M 0,0 -426.732,0"
           style="fill:none;stroke:#d9dbdc;stroke-width:0.50099999;stroke-linecap:butt;stroke-linejoin:round;stroke-miterlimit:10;stroke-dasharray:none;stroke-opacity:1"
           id="path4074"
           inkscape:connector-curvature="0" /><g
           id="g4076"
           transform="translate(0,-30.337)"><path
             d="M 0,0 -426.732,0"
             style="fill:none;stroke:#d9dbdc;stroke-width:0.50099999;stroke-linecap:butt;stroke-linejoin:round;stroke-miterlimit:10;stroke-dasharray:none;stroke-opacity:1"
             id="path4078"
             inkscape:connector-curvature="0" /><g
             id="g4080"
             transform="translate(0,-30.421)"><path
               d="M 0,0 -426.732,0"
               style="fill:none;stroke:#d9dbdc;stroke-width:0.50099999;stroke-linecap:butt;stroke-linejoin:round;stroke-miterlimit:10;stroke-dasharray:none;stroke-opacity:1"
               id="path4082"
               inkscape:connector-curvature="0" /><g
               id="g4084"
               transform="translate(0,-30.421)"><path
                 d="M 0,0 -426.732,0"
                 style="fill:none;stroke:#d9dbdc;stroke-width:0.50099999;stroke-linecap:butt;stroke-linejoin:round;stroke-miterlimit:10;stroke-dasharray:none;stroke-opacity:1"
                 id="path4086"
                 inkscape:connector-curvature="0" /></g></g></g></g></g><g
       id="g4088"
       transform="translate(513.934,308.671)"><path
         d="M 0,0 -426.732,0"
         style="fill:none;stroke:#231f20;stroke-width:0.66900003;stroke-linecap:butt;stroke-linejoin:round;stroke-miterlimit:10;stroke-dasharray:none;stroke-opacity:1"
         id="path4090"
         inkscape:connector-curvature="0" /><g
         id="g4092"><path
           d="M 0,0 0,2.925"
           style="fill:none;stroke:#231f20;stroke-width:0.66900003;stroke-linecap:butt;stroke-linejoin:round;stroke-miterlimit:10;stroke-dasharray:none;stroke-opacity:1"
           id="path4094"
           inkscape:connector-curvature="0" /><g
           id="g4096"
           transform="translate(-41.871,0)"><path
             d="M 0,0 0,2.925"
             style="fill:none;stroke:#231f20;stroke-width:0.66900003;stroke-linecap:butt;stroke-linejoin:round;stroke-miterlimit:10;stroke-dasharray:none;stroke-opacity:1"
             id="path4098"
             inkscape:connector-curvature="0" /><g
             id="g4100"
             transform="translate(-41.787,0)"><path
               d="M 0,0 0,2.925"
               style="fill:none;stroke:#231f20;stroke-width:0.66900003;stroke-linecap:butt;stroke-linejoin:round;stroke-miterlimit:10;stroke-dasharray:none;stroke-opacity:1"
               id="path4102"
               inkscape:connector-curvature="0" /><g
               id="g4104"
               transform="translate(-41.871,0)"><path
                 d="M 0,0 0,2.925"
                 style="fill:none;stroke:#231f20;stroke-width:0.66900003;stroke-linecap:butt;stroke-linejoin:round;stroke-miterlimit:10;stroke-dasharray:none;stroke-opacity:1"
                 id="path4106"
                 inkscape:connector-curvature="0" /><g
                 id="g4108"
                 transform="translate(-41.787,0)"><path
                   d="M 0,0 0,2.925"
                   style="fill:none;stroke:#231f20;stroke-width:0.66900003;stroke-linecap:butt;stroke-linejoin:round;stroke-miterlimit:10;stroke-dasharray:none;stroke-opacity:1"
                   id="path4110"
                   inkscape:connector-curvature="0" /><g
                   id="g4112"
                   transform="translate(-41.871,0)"><path
                     d="M 0,0 0,2.925"
                     style="fill:none;stroke:#231f20;stroke-width:0.66900003;stroke-linecap:butt;stroke-linejoin:round;stroke-miterlimit:10;stroke-dasharray:none;stroke-opacity:1"
                     id="path4114"
                     inkscape:connector-curvature="0" /><g
                     id="g4116"
                     transform="translate(-41.787,0)"><path
                       d="M 0,0 0,2.925"
                       style="fill:none;stroke:#231f20;stroke-width:0.66900003;stroke-linecap:butt;stroke-linejoin:round;stroke-miterlimit:10;stroke-dasharray:none;stroke-opacity:1"
                       id="path4118"
                       inkscape:connector-curvature="0" /><g
                       id="g4120"
                       transform="translate(-41.871,0)"><path
                         d="M 0,0 0,2.925"
                         style="fill:none;stroke:#231f20;stroke-width:0.66900003;stroke-linecap:butt;stroke-linejoin:round;stroke-miterlimit:10;stroke-dasharray:none;stroke-opacity:1"
                         id="path4122"
                         inkscape:connector-curvature="0" /><g
                         id="g4124"
                         transform="translate(-41.787,0)"><path
                           d="M 0,0 0,2.925"
                           style="fill:none;stroke:#231f20;stroke-width:0.66900003;stroke-linecap:butt;stroke-linejoin:round;stroke-miterlimit:10;stroke-dasharray:none;stroke-opacity:1"
                           id="path4126"
                           inkscape:connector-curvature="0" /><g
                           id="g4128"
                           transform="translate(-41.871,0)"><path
                             d="M 0,0 0,2.925"
                             style="fill:none;stroke:#231f20;stroke-width:0.66900003;stroke-linecap:butt;stroke-linejoin:round;stroke-miterlimit:10;stroke-dasharray:none;stroke-opacity:1"
                             id="path4130"
                             inkscape:connector-curvature="0" /><g
                             id="g4132"
                             transform="translate(-41.787,0)"><path
                               d="M 0,0 0,2.925"
                               style="fill:none;stroke:#231f20;stroke-width:0.66900003;stroke-linecap:butt;stroke-linejoin:round;stroke-miterlimit:10;stroke-dasharray:none;stroke-opacity:1"
                               id="path4134"
                               inkscape:connector-curvature="0" /></g></g></g></g></g></g></g></g></g></g></g></g><g
       id="g4136"
       transform="translate(509.755,225.263)"><path
         d="m 0,0 -8.357,-0.752 -8.358,-0.334 -8.357,0.167 -8.357,-1.755 -8.441,-1.337 -8.358,-2.09 -8.357,-1.838 -8.358,-0.752 -16.715,-3.343 -8.357,-1.17 -8.357,-0.335 -8.358,-1.671 -8.441,-3.594 -8.357,-1.421 -8.358,-1.504 -8.357,-0.752 -8.358,1.337 -8.357,-0.084 -8.358,-3.593 -8.357,-1.17 -8.357,-2.006 c -14.324,-2.199 -27.756,-5.067 -41.871,-8.19 l -8.358,-1.923 -8.357,0.168 -8.358,-0.251 -8.357,-0.919 -8.442,-0.585 -8.357,-0.418 -8.358,-0.335 -8.357,-0.167 -8.358,0 -8.357,-0.501 -8.358,-0.585 -8.357,-0.752 -8.358,-0.669 c -22.617,-1.813 -44.516,-5.094 -66.943,-8.357 l -8.357,-1.338 -8.357,-1.17"
         style="fill:none;stroke:#4f3110;stroke-width:1.16999996;stroke-linecap:round;stroke-linejoin:round;stroke-miterlimit:10;stroke-dasharray:none;stroke-opacity:1"
         id="path4138"
         inkscape:connector-curvature="0" /></g><g
       id="g4140"
       transform="translate(509.755,262.872)"><path
         d="m 0,0 -8.357,-1.003 -8.358,0 -8.357,-1.003 -8.357,-0.167 -8.441,-1.421 -8.358,-1.253 -8.357,-0.084 -8.358,-0.418 -8.357,-1.337 -8.358,-2.089 -8.357,-0.418 -8.357,-2.173 -8.358,-1.588 -8.441,-2.09 -8.357,-1.42 -8.358,-1.672 -8.357,-2.173 -8.358,-2.089 -8.357,2.089 -8.358,-5.683 -8.357,-2.006 -8.357,-2.256 -8.441,-1.337 -8.358,-0.084 -8.357,-0.919 -8.358,0 -8.357,-1.087 -8.358,-0.417 -16.715,-0.168 -8.357,-1.003 -8.442,-1.337 -8.357,-1.588 -8.358,-1.755 -8.357,-1.42 -8.358,-1.338 -8.357,-1.17 -8.358,-1.253 -8.357,-1.421 -16.715,-3.009 -8.441,-1.671 -8.357,-1.505 -16.715,-4.011 -16.715,-3.677 -16.715,-3.845 -8.357,-1.838"
         style="fill:none;stroke:#00abe3;stroke-width:1.16999996;stroke-linecap:round;stroke-linejoin:round;stroke-miterlimit:10;stroke-dasharray:none;stroke-opacity:1"
         id="path4142"
         inkscape:connector-curvature="0" /></g><g
       id="g4144"
       transform="translate(509.755,254.431)"><path
         d="M 0,0 -8.357,3.426 -16.715,4.346 -25.072,3.343 -33.429,3.009 -41.87,1.421 -50.228,0 l -8.357,0.752 -8.358,0.669 -8.357,-1.839 -8.358,-4.012 -8.357,-0.835 -8.357,-1.672 -8.358,-4.931 -8.441,-5.934 -8.357,-4.68 -16.715,-8.524 -8.358,-1.254 -8.357,1.17 -8.358,-0.585 -8.357,-5.014 -8.357,-2.675 -8.441,-1.42 -8.358,1.086 -8.357,-2.256 -8.358,0.083 -8.357,-1.086 -16.715,-1.17 -8.358,-0.084 -8.357,-0.167 -8.442,-0.251 -8.357,-0.334 -8.358,0.251 -8.357,0.501 -8.358,0.669 -8.357,0.417 -8.358,0.251 -8.357,0.335 c -25.145,0.446 -50.165,-0.044 -75.301,-0.502 l -16.714,-0.334"
         style="fill:none;stroke:#231f20;stroke-width:1.16999996;stroke-linecap:round;stroke-linejoin:round;stroke-miterlimit:10;stroke-dasharray:none;stroke-opacity:1"
         id="path4146"
         inkscape:connector-curvature="0" /></g><g
       id="g4148"
       transform="translate(509.755,296.302)"><path
         d="m 0,0 -8.357,-0.502 -8.358,-0.083 -8.357,-0.418 -8.357,-0.251 -8.441,-0.501 -8.358,-0.502 -8.357,0.084 -8.358,-0.251 -25.072,-1.254 -8.357,-0.167 -8.358,0.251 -8.441,-0.585 c -14.044,-0.359 -27.754,-0.085 -41.787,0.334 l -8.358,-0.418 -8.357,0.669 -8.357,1.086 -8.441,-0.083 -8.358,-0.334 -8.357,-0.502 -8.358,-0.334 -8.357,-0.251 -8.358,-0.501 -25.072,-0.753 -8.442,0 -8.357,-0.167 -8.358,-0.25 -8.357,-0.753 -8.358,-0.418 -8.357,-0.25 -8.358,-0.167 -8.357,-0.418 -8.358,-0.335 -8.357,-0.25 -8.441,-0.418 -8.357,-0.251 -8.358,-0.167 -8.357,-0.084 -16.715,-0.501 -8.358,-0.418 -8.357,-0.251 -8.357,-0.334"
         style="fill:none;stroke:#bc1e24;stroke-width:1.16999996;stroke-linecap:round;stroke-linejoin:round;stroke-miterlimit:10;stroke-dasharray:none;stroke-opacity:1"
         id="path4150"
         inkscape:connector-curvature="0" /></g><g
       id="g4152"
       transform="translate(509.755,288.028)"><path
         d="m 0,0 -8.357,-0.418 -8.358,-0.251 -8.357,-0.668 -8.357,-0.502 -8.441,-1.003 -16.715,-0.836 -8.358,-0.083 -8.357,-0.167 -8.358,-0.335 -8.357,0 -8.357,-0.417 -8.358,-0.251 -8.441,-1.254 -8.357,-1.086 -8.358,-0.92 -8.357,-0.835 -8.358,-2.34 -8.357,-0.669 -8.358,-2.591 -8.357,-1.421 -8.357,-2.005 -8.441,-2.508 -8.358,-1.671 -8.357,-0.752 -8.358,-1.087 -8.357,-0.835 -8.358,-1.839 -8.357,-1.17 -8.358,-1.755 -8.357,-1.839 -8.442,-1.838 -8.357,-1.421 -8.358,-1.254 -8.357,-1.003 -8.358,-1.42 -25.072,-5.516 -8.358,-1.338 -8.357,-1.17 -8.441,-1.086 -8.357,-1.087 -8.358,-1.253 -8.357,-1.17 -8.358,-1.337 -8.357,-1.254 -25.072,-3.51"
         style="fill:none;stroke:#559441;stroke-width:1.16999996;stroke-linecap:round;stroke-linejoin:round;stroke-miterlimit:10;stroke-dasharray:none;stroke-opacity:1"
         id="path4154"
         inkscape:connector-curvature="0" /></g><text
       transform="matrix(-1,0,0,1,527.748,311.8021)"
       style="font-variant:normal;font-weight:normal;font-stretch:normal;font-size:9.77820015px;font-family:Arial;-inkscape-font-specification:ArialMT;writing-mode:lr-tb;fill:#231f20;fill-opacity:1;fill-rule:nonzero;stroke:none"
       id="text4156"><tspan
         x="0"
         y="0"
         id="tspan4158">0</tspan><tspan
         x="-5.4171228 0.01368948"
         y="-30.401402"
         sodipodi:role="line"
         id="tspan4160">50</tspan><tspan
         x="-10.834246 -5.4063668 0.021512041"
         y="-60.801826"
         sodipodi:role="line"
         id="tspan4162">100</tspan><tspan
         x="-10.834246 -5.4063668 0.021512041"
         y="-91.203224"
         sodipodi:role="line"
         id="tspan4164">150</tspan><tspan
         x="-10.834246 -5.4063668 0.021512041"
         y="-121.60365"
         sodipodi:role="line"
         id="tspan4166">200</tspan><tspan
         x="-10.834246 -5.4063668 0.021512041"
         y="-152.00407"
         sodipodi:role="line"
         id="tspan4168">250</tspan><tspan
         x="7.1576424 12.587477 18.017311 23.447145 48.983894 54.413727 59.843563 65.273399 90.810143 96.239975 101.66982 107.09965 132.6364 138.06622 143.49606 148.9259 174.46265 179.89247 185.32231 190.75215 216.28987 221.71971 227.14954 232.57938 258.11612 263.54596 268.9758 274.40564 299.94238 305.37222 310.80203 316.23187 341.76862 347.19846 352.6283 358.05814 383.59488 389.02472 394.45453 399.88437 425.42111 430.85095 436.28079 441.71063"
         y="11.634102"
         sodipodi:role="line"
         id="tspan4170">19901995200020052010201520202025203020352040</tspan></text>
<path
       d="m 304.831,156.398 0,151.782"
       style="fill:none;stroke:#a7a9ac;stroke-width:0.50099999;stroke-linecap:butt;stroke-linejoin:round;stroke-miterlimit:10;stroke-dasharray:4.0116, 1.5043;stroke-dashoffset:0;stroke-opacity:1"
       id="path4186"
       inkscape:connector-curvature="0" /><text
       xml:space="preserve"
       style="font-style:normal;font-weight:normal;font-size:32px;line-height:125%;font-family:sans-serif;letter-spacing:0px;word-spacing:0px;fill:#000000;fill-opacity:1;stroke:none;stroke-width:1px;stroke-linecap:butt;stroke-linejoin:miter;stroke-opacity:1"
       x="-254.45012"
       y="173.31519"
       id="text3622"
       sodipodi:linespacing="125%"
       transform="scale(-1,1)"><tspan
         sodipodi:role="line"
         id="tspan3624"
         x="-254.45012"
         y="173.31519"
         style="font-size:10px">petróleo e outros líquidos</tspan></text>
<text
       xml:space="preserve"
       style="font-style:normal;font-weight:normal;font-size:32px;line-height:125%;font-family:sans-serif;letter-spacing:0px;word-spacing:0px;fill:#000000;fill-opacity:1;stroke:none;stroke-width:1px;stroke-linecap:butt;stroke-linejoin:miter;stroke-opacity:1"
       x="-178.98195"
       y="199.02058"
       id="text3622-1"
       sodipodi:linespacing="125%"
       transform="scale(-1,1)"><tspan
         sodipodi:role="line"
         id="tspan3624-5"
         x="-178.98195"
         y="199.02058"
         style="font-size:10px">gás natural</tspan></text>
<text
       xml:space="preserve"
       style="font-style:normal;font-weight:normal;font-size:32px;line-height:125%;font-family:sans-serif;letter-spacing:0px;word-spacing:0px;fill:#000000;fill-opacity:1;stroke:none;stroke-width:1px;stroke-linecap:butt;stroke-linejoin:miter;stroke-opacity:1"
       x="-260.33176"
       y="203.13014"
       id="text3622-1-6"
       sodipodi:linespacing="125%"
       transform="scale(-1,1)"><tspan
         sodipodi:role="line"
         id="tspan3624-5-7"
         x="-260.33176"
         y="203.13014"
         style="font-size:10px">carvão</tspan></text>
<text
       xml:space="preserve"
       style="font-style:normal;font-weight:normal;font-size:32px;line-height:125%;font-family:sans-serif;letter-spacing:0px;word-spacing:0px;fill:#000000;fill-opacity:1;stroke:none;stroke-width:1px;stroke-linecap:butt;stroke-linejoin:miter;stroke-opacity:1"
       x="-192.81432"
       y="234.85826"
       id="text3622-1-5"
       sodipodi:linespacing="125%"
       transform="scale(-1,1)"><tspan
         sodipodi:role="line"
         id="tspan3624-5-6"
         x="-192.81432"
         y="234.85826"
         style="font-size:10px">renováveis</tspan></text>
<text
       xml:space="preserve"
       style="font-style:normal;font-weight:normal;font-size:32px;line-height:125%;font-family:sans-serif;letter-spacing:0px;word-spacing:0px;fill:#000000;fill-opacity:1;stroke:none;stroke-width:1px;stroke-linecap:butt;stroke-linejoin:miter;stroke-opacity:1"
       x="-190.77124"
       y="282.88104"
       id="text3622-1-1"
       sodipodi:linespacing="125%"
       transform="scale(-1,1)"><tspan
         sodipodi:role="line"
         id="tspan3624-5-2"
         x="-190.77124"
         y="282.88104"
         style="font-size:10px">nuclear</tspan></text>
<text
       xml:space="preserve"
       style="font-style:normal;font-weight:normal;font-size:32px;line-height:125%;font-family:sans-serif;letter-spacing:0px;word-spacing:0px;fill:#000000;fill-opacity:1;stroke:none;stroke-width:1px;stroke-linecap:butt;stroke-linejoin:miter;stroke-opacity:1"
       x="-318.61053"
       y="152.28218"
       id="text3622-1-6-1"
       sodipodi:linespacing="125%"
       transform="scale(-1,1)"><tspan
         sodipodi:role="line"
         id="tspan3624-5-7-7"
         x="-318.61053"
         y="152.28218"
         style="font-size:10px">2015</tspan></text>
</g></svg>