<?xml version="1.0" encoding="UTF-8" standalone="no"?>
<svg
   xmlns:dc="http://purl.org/dc/elements/1.1/"
   xmlns:cc="http://creativecommons.org/ns#"
   xmlns:rdf="http://www.w3.org/1999/02/22-rdf-syntax-ns#"
   xmlns:svg="http://www.w3.org/2000/svg"
   xmlns="http://www.w3.org/2000/svg"
   viewBox="0 0 1534.7198 710.71997"
   height="710.71997"
   width="1534.7198"
   xml:space="preserve"
   id="svg2"
   version="1.1"><metadata
     id="metadata8"><rdf:RDF><cc:Work
         rdf:about=""><dc:format>image/svg+xml</dc:format><dc:type
           rdf:resource="http://purl.org/dc/dcmitype/StillImage" /></cc:Work></rdf:RDF></metadata><defs
     id="defs6"><clipPath
       id="clipPath18"
       clipPathUnits="userSpaceOnUse"><path
         style="clip-rule:evenodd"
         id="path16"
         d="M 0,0 H 4795.833 V 2220.0208 H 0 Z" /></clipPath></defs><g
     transform="matrix(0.31999998,0,0,0.31999998,0,1.4434666e-5)"
     id="g10"><g
       id="g12"><g
         clip-path="url(#clipPath18)"
         id="g14"><g
           transform="matrix(2.9404249,0,0,2.9404249,1.4702125,1.4702125)"
           id="g20"><path
             id="path22"
             style="fill:none;stroke:#000000;stroke-width:1;stroke-linecap:butt;stroke-linejoin:miter;stroke-miterlimit:10;stroke-dasharray:none;stroke-opacity:1"
             d="m 51.27,30.959999 h 472.63997 c 1.2685,0 2.52491,0.123743 3.76911,0.371227 1.2442,0.247485 2.45227,0.613957 3.62426,1.099415 1.172,0.485462 2.28541,1.080582 3.34015,1.785359 1.05475,0.70478 2.0307,1.50568 2.92774,2.402694 0.89697,0.897015 1.69787,1.87291 2.40265,2.927685 0.70477,1.054775 1.29992,2.168167 1.7854,3.340172 0.48547,1.172008 0.85199,2.380108 1.09948,3.624298 0.2475,1.244198 0.37122,2.50058 0.37122,3.76915 v 90.179991 c 0,1.26856 -0.12372,2.52493 -0.37122,3.76912 -0.24749,1.24419 -0.61401,2.45229 -1.09948,3.6243 -0.48548,1.172 -1.08063,2.28538 -1.7854,3.34018 -0.70478,1.05478 -1.50568,2.03067 -2.40265,2.92769 -0.89704,0.89701 -1.87293,1.6979 -2.92768,2.40269 -1.0548,0.70477 -2.16821,1.2999 -3.34021,1.78537 -1.17199,0.48546 -2.38006,0.85193 -3.62426,1.09941 -1.2442,0.2475 -2.50061,0.37125 -3.76911,0.37125 H 51.27 c -1.268573,0 -2.524955,-0.12375 -3.769149,-0.37125 -1.244194,-0.24748 -2.452294,-0.61395 -3.624298,-1.09941 -1.172005,-0.48547 -2.285397,-1.0806 -3.340172,-1.78537 -1.054779,-0.70479 -2.030674,-1.50568 -2.927685,-2.40269 -0.897015,-0.89702 -1.697914,-1.87291 -2.402691,-2.92769 -0.70478,-1.0548 -1.2999,-2.16818 -1.785362,-3.34018 -0.485462,-1.17201 -0.851933,-2.38011 -1.099419,-3.62432 -0.247482,-1.24418 -0.371225,-2.50054 -0.371223,-3.7691 V 50.279999 c -2e-6,-1.26857 0.123741,-2.524952 0.371223,-3.769146 0.247486,-1.244194 0.61396,-2.452294 1.099423,-3.624302 0.485458,-1.172005 1.080578,-2.285397 1.785358,-3.340172 0.704777,-1.054775 1.505676,-2.03067 2.402691,-2.927685 0.897011,-0.897014 1.872906,-1.697914 2.927681,-2.402691 1.054779,-0.70478 2.168171,-1.2999 3.340176,-1.785358 1.172004,-0.48546 2.380104,-0.851933 3.624298,-1.099417 1.244194,-0.247486 2.500576,-0.371229 3.769149,-0.371229 z" /></g><g
           transform="scale(2.9404249)"
           id="g24"><path
             id="path26"
             style="fill:none;stroke:#000000;stroke-width:1;stroke-linecap:butt;stroke-linejoin:miter;stroke-miterlimit:10;stroke-dasharray:none;stroke-opacity:1"
             d="M 547.22998,92.870003 1343.1,93.400002 V 307.59" /><path
             id="path28"
             style="fill:#000000;fill-opacity:1;fill-rule:nonzero;stroke:none"
             d="m 1343.1,315.07999 -4.99,-9.97998 4.99,2.48999 4.99,-2.48999 z" /><path
             id="path30"
             style="fill:none;stroke:#000000;stroke-width:1;stroke-linecap:butt;stroke-linejoin:miter;stroke-miterlimit:10;stroke-dasharray:none;stroke-opacity:1"
             d="m 1343.1,315.07999 -4.99,-9.97998 4.99,2.48999 4.99,-2.48999 z" /></g><g
           transform="scale(2.9362776)"
           id="g32"><text
             id="text36"
             style="font-variant:normal;font-weight:normal;font-size:37px;font-family:ArialMT;-inkscape-font-specification:ArialMT;writing-mode:lr-tb;fill:#000000;fill-opacity:1;fill-rule:nonzero;stroke:none"
             transform="translate(216.76563,84)"><tspan
               id="tspan34"
               y="0"
               x="0 24.678711 32.898926 53.476562 61.696777 69.916992 90.494629 100.77441 121.35205 139.85205">Biblioteca</tspan></text>
<text
             id="text40"
             style="font-variant:normal;font-weight:normal;font-size:37px;font-family:ArialMT;-inkscape-font-specification:ArialMT;writing-mode:lr-tb;fill:#000000;fill-opacity:1;fill-rule:nonzero;stroke:none"
             transform="translate(154.03125,129)"><tspan
               id="tspan38"
               y="0"
               x="0 18.5 39.077637 59.655273 69.935059 82.256348 102.83398 111.0542 131.63184 152.20947 172.78711 185.1084 205.68604 226.26367 234.48389 255.06152 265.34131">controlador_pid.h</tspan></text>
</g><g
           transform="scale(2.9404249)"
           id="g42"><path
             id="path44"
             style="fill:none;stroke:#000000;stroke-width:1;stroke-linecap:butt;stroke-linejoin:miter;stroke-miterlimit:10;stroke-dasharray:none;stroke-opacity:1"
             d="m 545.22998,286.10001 h 271.07001 v 65.6 l 259.21001,0.05" /><path
             id="path46"
             style="fill:#000000;fill-opacity:1;fill-rule:nonzero;stroke:none"
             d="m 1083,351.75 -9.99,4.98999 2.5,-4.98999 -2.5,-4.98999 z" /><path
             id="path48"
             style="fill:none;stroke:#000000;stroke-width:1;stroke-linecap:butt;stroke-linejoin:miter;stroke-miterlimit:10;stroke-dasharray:none;stroke-opacity:1"
             d="m 1083,351.75 -9.99,4.98999 2.5,-4.98999 -2.5,-4.98999 z" /></g><g
           transform="matrix(2.9404249,0,0,2.9404249,1.4702125,1.4702125)"
           id="g50"><path
             id="path52"
             style="fill:none;stroke:#000000;stroke-width:1;stroke-linecap:butt;stroke-linejoin:miter;stroke-miterlimit:10;stroke-dasharray:none;stroke-opacity:1"
             d="m 53.27,221.69 h 472.63997 c 1.26856,0 2.52491,0.12375 3.76905,0.37123 1.2442,0.24749 2.45233,0.61394 3.62432,1.0994 1.17194,0.48546 2.28534,1.08058 3.34015,1.78537 1.05475,0.70479 2.0307,1.50568 2.92774,2.40269 0.89703,0.89701 1.69787,1.8729 2.40265,2.92766 0.70477,1.05478 1.29992,2.16817 1.7854,3.34018 0.48541,1.17201 0.85187,2.38011 1.09936,3.62431 0.2475,1.24421 0.37128,2.5006 0.37134,3.76917 V 331.19 c -6e-5,1.26856 -0.12384,2.52494 -0.37134,3.76914 -0.24749,1.24417 -0.61395,2.45227 -1.09936,3.62426 -0.48548,1.172 -1.08063,2.2854 -1.7854,3.34018 -0.70478,1.05478 -1.50562,2.03067 -2.40265,2.92771 -0.89704,0.897 -1.87299,1.69787 -2.92774,2.40265 -1.05481,0.7048 -2.16821,1.29992 -3.34015,1.7854 -1.17199,0.48544 -2.38006,0.8519 -3.62426,1.09939 -1.2442,0.2475 -2.50055,0.37125 -3.76911,0.37128 H 53.27 c -1.268573,-3e-5 -2.524955,-0.12378 -3.769153,-0.37128 -1.244194,-0.24749 -2.452294,-0.61395 -3.624298,-1.09939 -1.172005,-0.48548 -2.285397,-1.0806 -3.340172,-1.78537 -1.054775,-0.70481 -2.03067,-1.50568 -2.927685,-2.40268 -0.897014,-0.89704 -1.697914,-1.87293 -2.402691,-2.92771 -0.70478,-1.05478 -1.2999,-2.16815 -1.785358,-3.34014 -0.485462,-1.17203 -0.851933,-2.38013 -1.099419,-3.6243 -0.247486,-1.2442 -0.371227,-2.50058 -0.371223,-3.76914 v -90.17999 c -4e-6,-1.26857 0.123737,-2.52496 0.371223,-3.76917 0.247486,-1.2442 0.613957,-2.4523 1.099419,-3.62431 0.485458,-1.17201 1.080578,-2.2854 1.785358,-3.34018 0.704781,-1.05478 1.50568,-2.03067 2.402695,-2.92767 0.897011,-0.89702 1.872906,-1.69791 2.927681,-2.4027 1.054775,-0.70478 2.168167,-1.29989 3.340172,-1.78535 1.172004,-0.48546 2.380104,-0.85191 3.624302,-1.0994 C 50.745045,221.81375 52.001427,221.69 53.27,221.69 Z" /></g><g
           transform="scale(2.9362776)"
           id="g54"><text
             id="text58"
             style="font-variant:normal;font-weight:normal;font-size:37px;font-family:ArialMT;-inkscape-font-specification:ArialMT;writing-mode:lr-tb;fill:#000000;fill-opacity:1;fill-rule:nonzero;stroke:none"
             transform="translate(213.64063,275)"><tspan
               id="tspan56"
               y="0"
               x="0 24.678711 32.898926 53.476562 61.696777 69.916992 90.494629 100.77441 121.35205 139.85205 160.42969">Biblioteca </tspan></text>
<text
             id="text62"
             style="font-variant:normal;font-weight:normal;font-size:37px;font-family:ArialMT;-inkscape-font-specification:ArialMT;writing-mode:lr-tb;fill:#000000;fill-opacity:1;fill-rule:nonzero;stroke:none"
             transform="translate(127.28125,320)"><tspan
               id="tspan60"
               y="0"
               x="0 8.2202148 28.797852 41.119141 61.696777 82.274414 100.77441 119.27441 131.5957 152.17334 170.67334 191.25098 203.57227 224.1499 242.6499 263.22754 275.54883 283.76904 304.34668 312.56689 322.84668">ler_escrever_serial.h</tspan></text>
</g><g
           transform="matrix(2.9404249,0,0,2.9404249,1.4702125,1.4702125)"
           id="g64"><path
             id="path66"
             style="fill:none;stroke:#000000;stroke-width:1;stroke-linecap:butt;stroke-linejoin:miter;stroke-miterlimit:10;stroke-dasharray:none;stroke-opacity:1"
             d="M 1106.7799,319.54999 H 1579.42 c 1.2686,3e-5 2.525,0.12375 3.7691,0.37121 1.2441,0.24747 2.4523,0.61396 3.6243,1.0994 1.172,0.48547 2.2854,1.0806 3.3402,1.78537 1.0548,0.7048 2.0306,1.50571 2.9277,2.40271 0.897,0.897 1.6978,1.87289 2.4025,2.92767 0.7047,1.05478 1.2999,2.16815 1.7854,3.34018 0.4854,1.172 0.8519,2.3801 1.0993,3.6243 0.2476,1.2442 0.3714,2.50058 0.3715,3.76917 v 90.17999 c -10e-5,1.26855 -0.1239,2.52493 -0.3713,3.7691 -0.2476,1.2442 -0.6141,2.4523 -1.0995,3.6243 -0.4855,1.172 -1.0807,2.2854 -1.7854,3.34018 -0.7047,1.05478 -1.5056,2.03067 -2.4026,2.92767 -0.897,0.89701 -1.8729,1.69788 -2.9279,2.40268 -1.0547,0.70481 -2.1681,1.29993 -3.3401,1.78537 -1.172,0.48545 -2.38,0.85193 -3.6242,1.09946 -1.244,0.24747 -2.5004,0.37121 -3.769,0.37125 h -472.6401 c -1.2687,-4e-5 -2.5251,-0.12378 -3.7693,-0.37125 -1.2442,-0.24753 -2.4522,-0.61401 -3.6242,-1.09946 -1.172,-0.48544 -2.2854,-1.08056 -3.3403,-1.78531 -1.0546,-0.7048 -2.0305,-1.50567 -2.9274,-2.40268 -0.8971,-0.897 -1.698,-1.87292 -2.4028,-2.92773 -0.7048,-1.05478 -1.3,-2.16815 -1.7855,-3.34018 -0.4854,-1.172 -0.8519,-2.3801 -1.0993,-3.62427 -0.2475,-1.2442 -0.3713,-2.50058 -0.3711,-3.76913 V 338.87 c -2e-4,-1.26859 0.1236,-2.52497 0.3711,-3.76917 0.2474,-1.2442 0.6139,-2.4523 1.0993,-3.6243 0.4855,-1.17203 1.0807,-2.2854 1.7855,-3.34018 0.7048,-1.05478 1.5057,-2.03067 2.4028,-2.92767 0.8969,-0.897 1.8728,-1.69791 2.9274,-2.40268 1.0549,-0.7048 2.1683,-1.29993 3.3403,-1.7854 1.172,-0.48544 2.38,-0.85193 3.6242,-1.09943 1.2442,-0.24743 2.5006,-0.37115 3.7693,-0.37118 z" /></g><g
           transform="scale(2.9362776)"
           id="g68"><text
             id="text72"
             style="font-variant:normal;font-weight:normal;font-size:37px;font-family:ArialMT;-inkscape-font-specification:ArialMT;writing-mode:lr-tb;fill:#000000;fill-opacity:1;fill-rule:nonzero;stroke:none"
             transform="translate(1278.9219,395)"><tspan
               id="tspan70"
               y="0"
               x="0 30.821289 51.398926 59.619141 80.196777 90.476562 108.97656 129.5542">main.cpp</tspan></text>
</g><g
           transform="scale(2.9404249)"
           id="g74"><path
             id="path76"
             style="fill:none;stroke:#000000;stroke-width:1;stroke-linecap:butt;stroke-linejoin:miter;stroke-miterlimit:10;stroke-dasharray:none;stroke-opacity:1"
             d="m 542.22998,478.79999 h 272.57001 v -62.59998 l 260.71001,-0.04" /><path
             id="path78"
             style="fill:#000000;fill-opacity:1;fill-rule:nonzero;stroke:none"
             d="m 1083,416.16 -9.99,5 2.5,-5 -2.5,-4.98999 z" /><path
             id="path80"
             style="fill:none;stroke:#000000;stroke-width:1;stroke-linecap:butt;stroke-linejoin:miter;stroke-miterlimit:10;stroke-dasharray:none;stroke-opacity:1"
             d="m 1083,416.16 -9.99,5 2.5,-5 -2.5,-4.98999 z" /></g><g
           transform="matrix(2.9404249,0,0,2.9404249,1.4702125,1.4702125)"
           id="g82"><path
             id="path84"
             style="fill:none;stroke:#000000;stroke-width:1;stroke-linecap:butt;stroke-linejoin:miter;stroke-miterlimit:10;stroke-dasharray:none;stroke-opacity:1"
             d="M 50.279999,414.41 H 522.91998 c 1.26856,0 2.52491,0.12375 3.76911,0.37122 1.2442,0.2475 2.45227,0.61395 3.62426,1.0994 1.17206,0.48544 2.28547,1.08056 3.34021,1.78537 1.05475,0.70477 2.03071,1.50567 2.92774,2.40267 0.89697,0.89701 1.69787,1.8729 2.40265,2.92765 0.70477,1.05478 1.29986,2.16818 1.78534,3.34018 0.48547,1.17202 0.85199,2.38012 1.09948,3.62429 0.2475,1.24424 0.37122,2.50065 0.37122,3.76923 v 90.17996 c 0,1.2685 -0.12372,2.52491 -0.37122,3.76911 -0.24749,1.2442 -0.61401,2.45227 -1.09948,3.62426 -0.48548,1.172 -1.08057,2.28541 -1.78534,3.34015 -0.70478,1.05475 -1.50568,2.0307 -2.40265,2.92774 -0.89703,0.89697 -1.87299,1.69787 -2.92774,2.40265 -1.05474,0.70477 -2.16815,1.29992 -3.34021,1.7854 -1.17199,0.48547 -2.38006,0.85199 -3.62426,1.09948 -1.2442,0.2475 -2.50055,0.37122 -3.76911,0.37122 H 50.279999 c -1.26857,0 -2.524952,-0.12372 -3.769146,-0.37122 -1.244194,-0.24749 -2.452294,-0.61401 -3.624302,-1.09948 -1.172005,-0.48548 -2.285397,-1.08063 -3.340172,-1.7854 -1.054775,-0.70478 -2.03067,-1.50568 -2.927685,-2.40265 -0.897014,-0.89704 -1.697914,-1.87293 -2.402691,-2.92768 -0.70478,-1.0548 -1.2999,-2.16821 -1.785358,-3.34021 -0.48546,-1.17199 -0.851934,-2.38006 -1.099419,-3.62426 -0.247484,-1.2442 -0.371227,-2.50061 -0.371227,-3.76911 v -90.17996 c 0,-1.26858 0.123741,-2.52499 0.371225,-3.76923 0.247487,-1.24417 0.613959,-2.45227 1.099417,-3.62429 0.485462,-1.172 1.080582,-2.2854 1.785359,-3.34018 0.70478,-1.05475 1.50568,-2.03064 2.402694,-2.92765 0.897015,-0.897 1.87291,-1.6979 2.927685,-2.40267 1.054775,-0.70478 2.168167,-1.2999 3.340172,-1.78534 1.172008,-0.48545 2.380108,-0.85193 3.624298,-1.0994 1.244198,-0.2475 2.50058,-0.37125 3.76915,-0.37125 z" /></g><g
           transform="scale(2.9362776)"
           id="g86"><text
             id="text90"
             style="font-variant:normal;font-weight:normal;font-size:37px;font-family:ArialMT;-inkscape-font-specification:ArialMT;writing-mode:lr-tb;fill:#000000;fill-opacity:1;fill-rule:nonzero;stroke:none"
             transform="translate(112.9375,490)"><tspan
               id="tspan88"
               y="0"
               x="0 24.678711 32.898926 53.476562 61.696777 69.916992 90.494629 100.77441 121.35205 139.85205 160.42969 170.70947 183.03076 203.6084 213.88818 234.46582 246.78711 267.36475 287.94238 306.44238 314.6626 335.24023 345.52002">Biblioteca referencia.h</tspan></text>
</g><g
           transform="scale(2.9404249)"
           id="g92"><path
             id="path94"
             style="fill:none;stroke:#000000;stroke-width:1;stroke-linecap:butt;stroke-linejoin:miter;stroke-miterlimit:10;stroke-dasharray:none;stroke-opacity:1"
             d="M 548.22998,673.54999 1345.6,673.5 1345.13,459.32001" /><path
             id="path96"
             style="fill:#000000;fill-opacity:1;fill-rule:nonzero;stroke:none"
             d="m 1345.11,451.82999 5.02,9.98001 -5,-2.48999 -4.99,2.50998 z" /><path
             id="path98"
             style="fill:none;stroke:#000000;stroke-width:1;stroke-linecap:butt;stroke-linejoin:miter;stroke-miterlimit:10;stroke-dasharray:none;stroke-opacity:1"
             d="m 1345.11,451.82999 5.02,9.98001 -5,-2.48999 -4.99,2.50998 z" /></g><g
           transform="matrix(2.9404249,0,0,2.9404249,1.4702125,1.4702125)"
           id="g100"><path
             id="path102"
             style="fill:none;stroke:#000000;stroke-width:1;stroke-linecap:butt;stroke-linejoin:miter;stroke-miterlimit:10;stroke-dasharray:none;stroke-opacity:1"
             d="m 56.27,609.14001 h 472.63997 c 1.26856,7e-5 2.52491,0.12378 3.76905,0.37122 1.2442,0.2475 2.45233,0.61395 3.62432,1.09937 1.172,0.48547 2.28541,1.08056 3.34015,1.78534 1.05487,0.70477 2.03077,1.50567 2.92774,2.40271 0.89703,0.89697 1.69794,1.87286 2.40271,2.92761 0.70477,1.05475 1.29986,2.16815 1.78534,3.34021 0.48541,1.17206 0.85193,2.38012 1.09942,3.62426 0.2475,1.24427 0.37122,2.50068 0.37128,3.76929 v 90.17999 c -6e-5,1.26856 -0.12378,2.52491 -0.37128,3.76905 -0.24749,1.2442 -0.61401,2.45233 -1.09942,3.62427 -0.48548,1.17199 -1.08057,2.2854 -1.78534,3.34021 -0.70477,1.05474 -1.50568,2.0307 -2.40271,2.92773 -0.89697,0.89703 -1.87287,1.69788 -2.92774,2.40265 -1.05474,0.70477 -2.16815,1.29993 -3.34015,1.78534 -1.17199,0.48547 -2.38006,0.85193 -3.62426,1.09942 -1.2442,0.2475 -2.50055,0.37128 -3.76911,0.37134 H 56.27 c -1.268573,-6e-5 -2.524955,-0.12384 -3.769146,-0.37134 -1.244197,-0.24749 -2.452301,-0.61395 -3.624305,-1.09936 -1.172009,-0.48547 -2.285397,-1.08063 -3.340172,-1.7854 -1.054775,-0.70477 -2.03067,-1.50568 -2.927685,-2.40271 -0.897011,-0.89704 -1.697906,-1.87299 -2.402691,-2.9278 -0.704776,-1.05475 -1.299896,-2.16809 -1.785358,-3.34008 -0.485459,-1.17194 -0.851929,-2.38007 -1.099415,-3.62427 -0.247486,-1.24414 -0.371227,-2.50049 -0.371227,-3.76905 v -90.17999 c 0,-1.26861 0.123741,-2.52502 0.371227,-3.76929 0.247486,-1.24414 0.613956,-2.4522 1.099415,-3.62426 0.485462,-1.172 1.080582,-2.2854 1.785358,-3.34015 0.704785,-1.05475 1.50568,-2.03058 2.402691,-2.92761 0.897015,-0.89698 1.87291,-1.69788 2.927689,-2.40271 1.054775,-0.70478 2.168163,-1.29987 3.340172,-1.78534 1.172,-0.48542 2.380104,-0.85187 3.624301,-1.09937 1.244191,-0.2475 2.500573,-0.37121 3.769146,-0.37128 z" /></g><g
           transform="scale(2.9362776)"
           id="g104"><text
             id="text108"
             style="font-variant:normal;font-weight:normal;font-size:37px;font-family:ArialMT;-inkscape-font-specification:ArialMT;writing-mode:lr-tb;fill:#000000;fill-opacity:1;fill-rule:nonzero;stroke:none"
             transform="translate(121,685)"><tspan
               id="tspan106"
               y="0"
               x="0 24.678711 32.898926 53.476562 61.696777 69.916992 90.494629 100.77441 121.35205 139.85205 160.42969 170.70947 189.20947 209.78711 230.36475 248.86475 269.44238 281.76367 300.26367 320.84131">Biblioteca conversor</tspan></text>
<text
             id="text112"
             style="font-variant:normal;font-weight:normal;font-size:37px;font-family:ArialMT;-inkscape-font-specification:ArialMT;writing-mode:lr-tb;fill:#000000;fill-opacity:1;fill-rule:nonzero;stroke:none"
             transform="translate(452.1355,685)"><tspan
               id="tspan110"
               y="0"
               x="0 10.279785">.h</tspan></text>
</g></g></g></g></svg>